<svg version="1.1" id="Layer_2" xmlns="http://www.w3.org/2000/svg" xmlns:xlink="http://www.w3.org/1999/xlink" x="0px" y="0px" viewBox="0 0 626.5 102.1" style="enable-background:new 0 0 626.5 102.1;" xml:space="preserve" role="presentation"><title>logo</title>
<style type="text/css">
	.svgst0{fill:#1C4480;}
	.svgst1{fill:#1C4480;stroke:#002E6D;stroke-width:2;stroke-miterlimit:10;}
</style>
<g>
	<path class="svgst0" d="M177,17.9h11.9l12,34.8h-9.4l-1.8-6.2h-13.5l-1.8,6.2H165L177,17.9z M187.7,39.7l-3.6-11.5
		c-0.1-0.5-0.5-2.1-1.2-4.7c-0.6,2.6-1.1,4.1-1.2,4.7l-3.5,11.5H187.7z"></path>
	<path class="svgst0" d="M234.8,52.7l-2-15c-0.3-2.1-0.5-4.7-0.7-7.8c-0.5,3.1-1.2,5.2-1.6,6.5l-4.7,16.3h-6.3l-4.7-16.3
		c-0.4-1.4-1.1-3.5-1.6-6.5c-0.2,3.1-0.5,5.7-0.8,7.8l-2,15h-8.8l5.4-34.8h9.4l5.3,18c0.3,1.1,0.8,2.6,1.1,4.7
		c0.2-1.9,0.7-3.5,1.1-4.8l5.3-17.9h9.4l5.4,34.8H234.8z"></path>
	<path class="svgst0" d="M248.3,17.9h21.3v7.6h-12.1v6H269V39h-11.4v5.9h12.1v7.8h-21.3V17.9z"></path>
	<path class="svgst0" d="M275.4,17.9h10.5c4.8,0,8.5,0,11.5,2.3c2.5,1.9,3.9,4.9,3.9,8.5c0,5.4-2.7,8.9-7.8,9.9l9.5,14h-10.7l-8-13.6
		v13.6h-8.9V17.9z M286.1,34.4c4,0,5.9-1.3,5.9-4.3c0-3.7-1.8-4.8-5.7-4.8h-1.9v9.2H286.1z"></path>
	<path class="svgst0" d="M306.4,17.9h9.6v34.8h-9.6V17.9z"></path>
	<path class="svgst0" d="M348.4,29.6c-2.5-2.8-5-4.2-8-4.2c-5.5,0-9.2,4.2-9.2,10.1c0,5.4,3.6,9.7,9.2,9.7c3.1,0,5.5-1.4,8-4.2v10.4
		c-3,1.5-5.9,2.2-9,2.2c-10.3,0-17.7-7.7-17.7-18.3c0-10.5,7.4-18.3,17.7-18.3c3.1,0,6,0.7,9,2.2V29.6z"></path>
	<path class="svgst0" d="M361.2,17.9H373l12,34.8h-9.4l-1.8-6.2h-13.5l-1.8,6.2h-9.4L361.2,17.9z M371.9,39.7l-3.6-11.5
		c-0.1-0.5-0.5-2.1-1.2-4.7c-0.6,2.6-1.1,4.1-1.2,4.7l-3.5,11.5H371.9z"></path>
	<path class="svgst0" d="M387.9,17.9h9.2l13.1,17.9c0.3,0.4,1.5,2.5,3.2,6.1c-0.3-2.7-0.5-5-0.5-6.9V17.9h9.1v34.8h-9.1l-13.1-18
		c-0.3-0.4-1.5-2.4-3.2-6.1c0.3,2.7,0.5,5,0.5,6.9v17.2h-9.2V17.9z"></path>
	<path class="svgst0" d="M443.6,17.9H465v7.6h-12.1v6h11.4V39h-11.4v5.9H465v7.8h-21.3V17.9z"></path>
	<path class="svgst0" d="M499.1,56.8l-3.7-4.9c-1.9,1-4.5,1.6-7.4,1.6c-10.9,0-18.7-8.1-18.7-18.2c0-4.9,1.9-9.4,5.5-12.9
		c3.5-3.4,8.2-5.3,13.1-5.3c5,0,9.6,1.9,13.1,5.3c3.5,3.4,5.5,8,5.5,12.9c0,5.2-1.9,9.8-5.6,13l6.3,8.4H499.1z M495.4,41.2
		c0.9-1.3,1.6-3.1,1.6-5.6c0-6.1-3.9-10.5-9.1-10.5c-5.2,0-9.1,4.4-9.1,10.3s3.7,10.3,9.2,10.3c0.8,0,1.6-0.2,2.4-0.5l-4.9-6.3h8.2
		L495.4,41.2z"></path>
	<path class="svgst0" d="M521.2,17.9v18.9c0,6.2,1.1,8.9,6,8.9c5.8,0,6-3.6,6-11.1V17.9h9.4v20.7c0,10.5-4.4,15-15.5,15
		c-5.9,0-10-1.4-12.5-4.2c-2.8-3.2-3-7.3-3-12.7V17.9H521.2z"></path>
	<path class="svgst0" d="M549.7,17.9h9.6v34.8h-9.6V17.9z"></path>
	<path class="svgst0" d="M571.4,26.1h-7.7v-8.2h25v8.2h-7.8v26.6h-9.5V26.1z"></path>
	<path class="svgst0" d="M599,36.8l-12.2-18.9h11l4.7,9c0.2,0.5,0.8,1.4,1.2,3c0.3-1.6,0.9-2.4,1.2-3l4.6-9h10.9l-12.2,18.9v15.9H599
		V36.8z"></path>
</g>
<g>
	<path class="svgst0" d="M167.4,73.3h2.7V90h-2.7V73.3z"></path>
	<path class="svgst0" d="M174,72.6l10.6,10.2c0.7,0.7,1.3,1.3,1.8,2V73.3h2.5v17.4l-10.8-10.4c-0.6-0.6-1.1-1.2-1.6-1.9V90H174V72.6z"></path>
	<path class="svgst0" d="M190.6,73.3h2.8l3.7,8.9c0.4,0.9,0.7,1.8,0.9,2.7c0.2-0.9,0.5-1.8,0.9-2.7l3.7-8.9h2.8l-7.5,17.4L190.6,73.3z"></path>
	<path class="svgst0" d="M207.2,73.3h9.3v2.3h-6.6v4.2h6.6v2.4h-6.6v5.4h6.6V90h-9.3V73.3z"></path>
	<path class="svgst0" d="M220.9,85.6c0.4,1.5,1.5,2.3,3.2,2.3c1.6,0,2.6-1,2.6-2.5c0-1.6-1.2-2-3-2.9c-3-1.5-4.6-2.6-4.6-5.1
		c0-2.7,2-4.6,5-4.6c2.5,0,4.2,1,4.8,2.8l-2.1,1.1c-0.7-1-1.4-1.5-2.5-1.5c-1.5,0-2.4,0.8-2.4,2.1c0,1.6,1.3,2.1,3.2,3
		c2.9,1.4,4.3,2.5,4.3,5c0,3.1-2.1,5.2-5.5,5.2c-2.9,0-4.7-1.4-5.3-3.8L220.9,85.6z"></path>
	<path class="svgst0" d="M237.9,90h-2.7V75.6h-4.4v-2.3h11.6v2.3h-4.4V90z"></path>
	<path class="svgst0" d="M257.8,79.4c-0.1,0.8-0.4,1.5-0.8,2.3l-4.4,8.9l-4.4-9.1c-0.3-0.7-0.6-1.4-0.8-2.1c0,0.8-0.1,1.6-0.3,2.3
		l-1.8,8.2h-2.5l4-17.4l4.9,10.5c0.1,0.3,0.4,1.1,0.9,2.3c0.3-0.9,0.7-1.7,1-2.3l4.8-10.5l4,17.4h-2.5l-1.8-8.3
		C258,81.4,257.9,80.7,257.8,79.4z"></path>
	<path class="svgst0" d="M264.6,73.3h9.3v2.3h-6.6v4.2h6.6v2.4h-6.6v5.4h6.6V90h-9.3V73.3z"></path>
	<path class="svgst0" d="M277.1,72.6l10.6,10.2c0.7,0.7,1.3,1.3,1.8,2V73.3h2.5v17.4l-10.8-10.4c-0.6-0.6-1.1-1.2-1.6-1.9V90h-2.5V72.6
		z"></path>
	<path class="svgst0" d="M301.2,90h-2.7V75.6h-4.4v-2.3h11.6v2.3h-4.4V90z"></path>
	<path class="svgst0" d="M314.8,73.3h2.7v14.3h6.1V90h-8.8V73.3z"></path>
	<path class="svgst0" d="M325.9,73.3h2.7V90h-2.7V73.3z"></path>
	<path class="svgst0" d="M332.5,73.3h9.3v2.3h-6.6v4.2h6.6v2.4h-6.6V90h-2.7V73.3z"></path>
	<path class="svgst0" d="M344.8,73.3h9.3v2.3h-6.6v4.2h6.6v2.4h-6.6v5.4h6.6V90h-9.3V73.3z"></path>
	<path class="svgst0" d="M364.3,73.3h2.7V90h-2.7V73.3z"></path>
	<path class="svgst0" d="M370.9,72.6l10.6,10.2c0.7,0.7,1.3,1.3,1.8,2V73.3h2.5v17.4l-10.8-10.4c-0.6-0.6-1.1-1.2-1.6-1.9V90h-2.5V72.6
		z"></path>
	<path class="svgst0" d="M390.9,85.6c0.4,1.5,1.5,2.3,3.2,2.3c1.6,0,2.6-1,2.6-2.5c0-1.6-1.2-2-3-2.9c-3-1.5-4.6-2.6-4.6-5.1
		c0-2.7,2-4.6,5-4.6c2.5,0,4.2,1,4.8,2.8l-2.1,1.1c-0.7-1-1.4-1.5-2.5-1.5c-1.5,0-2.4,0.8-2.4,2.1c0,1.6,1.3,2.1,3.2,3
		c2.9,1.4,4.3,2.5,4.3,5c0,3.1-2.1,5.2-5.5,5.2c-2.9,0-4.7-1.4-5.3-3.8L390.9,85.6z"></path>
	<path class="svgst0" d="M405.2,73.3v10.2c0,3,1.4,4.5,4.2,4.5c2.8,0,4.2-1.5,4.2-4.5V73.3h2.7v10.4c0,4.5-2.3,6.8-6.9,6.8
		c-4.6,0-6.9-2.2-6.9-6.8V73.3H405.2z"></path>
	<path class="svgst0" d="M422.5,90H420V73.3h3.8c1.8,0,3.1,0.1,4.2,0.9c1,0.8,1.6,2.1,1.6,3.7c0,2.7-1.3,4.2-3.8,4.5l5.8,7.6h-3.1
		l-5.6-7.5h-0.3V90z M423.2,80.4c2.4,0,3.6-0.3,3.6-2.3c0-2.1-1.1-2.5-3.6-2.5h-0.5v4.8H423.2z"></path>
	<path class="svgst0" d="M442.2,85.7h-6.6l-1.9,4.3h-2.9l8.1-17.4L447,90h-2.9L442.2,85.7z M441.3,83.4l-1.7-3.8
		c-0.2-0.4-0.4-1.1-0.6-1.9c-0.2,0.8-0.4,1.5-0.6,1.9l-1.7,3.8H441.3z"></path>
	<path class="svgst0" d="M448.6,72.6l10.6,10.2c0.7,0.7,1.3,1.3,1.8,2V73.3h2.5v17.4l-10.8-10.4c-0.6-0.6-1.1-1.2-1.6-1.9V90h-2.5V72.6
		z"></path>
	<path class="svgst0" d="M475.6,75.4c-3.7,0-6.2,2.6-6.2,6.3c0,3.7,2.5,6.2,5.9,6.2c2,0,3.8-0.7,5.4-2.1v3.1c-1.5,1.1-3.2,1.6-5.2,1.6
		c-2.6,0-4.8-0.9-6.4-2.5c-1.6-1.6-2.5-3.9-2.5-6.3c0-2.5,0.9-4.7,2.5-6.3c1.7-1.6,3.8-2.5,6.3-2.5c2,0,3.8,0.6,5.4,1.7l-0.1,2.7
		C479.2,76,477.5,75.4,475.6,75.4z"></path>
	<path class="svgst0" d="M484.1,73.3h9.3v2.3h-6.6v4.2h6.6v2.4h-6.6v5.4h6.6V90h-9.3V73.3z"></path>
	<path class="svgst0" d="M511.9,75.4c-3.7,0-6.2,2.6-6.2,6.3c0,3.7,2.5,6.2,5.9,6.2c2,0,3.8-0.7,5.4-2.1v3.1c-1.5,1.1-3.2,1.6-5.2,1.6
		c-2.6,0-4.8-0.9-6.4-2.5c-1.6-1.6-2.5-3.9-2.5-6.3c0-2.5,0.9-4.7,2.5-6.3c1.7-1.6,3.8-2.5,6.3-2.5c2,0,3.8,0.6,5.4,1.7l-0.1,2.7
		C515.5,76,513.8,75.4,511.9,75.4z"></path>
	<path class="svgst0" d="M535,87.9c-1.7,1.7-3.9,2.6-6.3,2.6c-2.4,0-4.7-0.9-6.3-2.6c-1.7-1.7-2.6-3.8-2.6-6.2c0-2.4,0.9-4.5,2.6-6.2
		c1.7-1.7,3.9-2.5,6.3-2.5s4.6,0.9,6.3,2.5c1.7,1.7,2.6,3.9,2.6,6.2C537.6,84.1,536.7,86.2,535,87.9z M533,77.2
		c-1.1-1.2-2.7-1.8-4.3-1.8c-1.6,0-3.2,0.6-4.3,1.8c-1.2,1.2-1.8,2.8-1.8,4.4c0,1.7,0.6,3.2,1.8,4.4c1.2,1.2,2.7,1.8,4.3,1.8
		c1.6,0,3.1-0.6,4.3-1.8c1.2-1.2,1.8-2.7,1.8-4.4C534.8,80,534.1,78.4,533,77.2z"></path>
	<path class="svgst0" d="M554,79.4c-0.1,0.8-0.4,1.5-0.8,2.3l-4.4,8.9l-4.4-9.1c-0.3-0.7-0.6-1.4-0.8-2.1c0,0.8-0.1,1.6-0.3,2.3
		l-1.8,8.2h-2.5l4-17.4l4.9,10.5c0.1,0.3,0.4,1.1,0.9,2.3c0.3-0.9,0.7-1.7,1-2.3l4.8-10.5l4,17.4h-2.5l-1.8-8.3
		C554.3,81.4,554.2,80.7,554,79.4z"></path>
	<path class="svgst0" d="M563.5,90h-2.5V73.3h4.1c1.7,0,3.1,0,4.2,0.9c1,0.7,1.7,2.1,1.7,3.7c0,1.6-0.7,3-1.7,3.8
		c-1.1,0.8-2.5,0.8-4.2,0.8h-1.6V90z M564.3,80.3c2.5,0,3.8-0.3,3.8-2.2c0-2-1.2-2.4-3.8-2.4h-0.7v4.7H564.3z"></path>
	<path class="svgst0" d="M581.2,85.7h-6.6l-1.9,4.3h-2.9l8.1-17.4L586,90h-2.9L581.2,85.7z M580.2,83.4l-1.7-3.8
		c-0.2-0.4-0.4-1.1-0.6-1.9c-0.2,0.8-0.4,1.5-0.6,1.9l-1.7,3.8H580.2z"></path>
	<path class="svgst0" d="M587.5,72.6l10.6,10.2c0.7,0.7,1.3,1.3,1.8,2V73.3h2.5v17.4l-10.8-10.4c-0.6-0.6-1.1-1.2-1.6-1.9V90h-2.5V72.6
		z"></path>
	<path class="svgst0" d="M609.9,82.3l-5.6-9.1h2.9l3.5,5.7c0.1,0.1,0.3,0.6,0.7,1.3c0.2-0.5,0.4-1,0.7-1.4l3.6-5.6h2.7l-5.8,9.1V90
		h-2.7V82.3z"></path>
</g>
<line class="svgst1" x1="165.4" y1="62.6" x2="618.4" y2="62.6"></line>
<g>
	<path class="svgst0" d="M147.6,93.6c0-21.7,0-86.4,0-93.4L0,0.2c0,7.3,0,72.4,0,93.4h0v6.1c0,0.1,0,0.2,0,0.3v2.2h147.6v-2.2
		c0-0.1,0-0.3,0-0.5L147.6,93.6L147.6,93.6z M15.1,93.6c3.1-7.7,8.3-20.9,10.9-30.1c1-3.3,2.2-13.8,2.2-13.8s0.1-1.4,0.3-2.1
		c0.2-0.7,0.5-1.3,0.5-1.3s0.6-1.3,1.5-2.4c0.4-0.6,5.8-6.7,10.9-12.9c5.4-6.5,10.5-13.2,10.5-13.2l1.3-1l1.3-0.5l1.3-0.3l3.2-0.2
		h1.8c0,0,7.5,0.5,8.4,0.7c1,0.1,7.6,0.5,7.6,0.5s17.9-0.5,18.7-0.5c4.2-0.1,7.9,3.1,8.4,4.3c0.5,1.3,0.7,2.6,0.7,2.6
		s0.3,0.4,0.3,0.7c0,0,2.5,0.1,2.5,0.1L108,24h2.2c0,0,4.8,0,9.4,0.4c4,0.4,11.7,4,12.7,5.8c1,1.8,2.1,3.7,2.3,5.8
		c0.2,2.1-0.1,6.4-0.3,7.1c-0.2,0.7-0.4,1.6-0.6,2.3c-0.4,1-0.9,2-0.9,2s-0.5,0-0.5-0.2c-0.1-0.2-0.1-0.3-0.2-0.4
		c-0.4-0.5-1.4-1.7-2.1-2.1c-1-0.5-3,0.5-3,0.5s-5.5,3.9-6,4.2c-0.8,0.5-2,0.9-2,0.9s-5.3,0.9-6.6,1c-1.3,0.1-6.4,0.4-7.3,0.6
		c-0.8,0.2-3.6,1.3-4.5,2.1c-1,0.8-1.8,2-2,2.5c-0.6,1.1-1,2.5-1.1,2.9c-0.1,0.4,0.5,3.8,0.5,3.8l0.5,0.8l2.3,5c0,0,1.1,3.1,2,5.4
		c0.9,2.3,1.7,6.3,3.1,9.9c1,2.5,3.5,6.7,5.1,9.3H15.1z"></path>
</g>
<path class="svgst0" d="M104.4,22.9c0,0-0.1,2.1-0.2,2.6c-0.1,0.5-17.1,0.8-18.1,0.8s-8.1,3.9-7.7,4.3c0.3,0.4-0.5,0.6,1,0.8
	s3.2-1,4-1.5C84.1,29.5,85,29,86,29c1,0,1.5,0.8,1.7,1.9s1.3,2.2,2.3,2.5c1,0.3,0.7,0.7,2.6,0.7s2.3-0.1,2.6,0.1
	c0.3,0.2,0.2,0.6-0.1,0.8c-0.3,0.3-2.1,1.8-2.4,2.3c-0.3,0.5-1,1.3-0.8,1.7c0.2,0.5,0.1,1,0.7,0.9c0.6-0.1,0.7-0.5,1.1-0.9
	c0.4-0.5,0.7-0.9,1.5-1.2c0.7-0.4,1.1-1.2,1.7-1.3c0.7-0.1,1.3-0.6,1.6-0.6s0.4,0.4,0.4,0.6c0,0.2-0.1,0.5-0.4,0.6s-0.3,0-0.4,0.3
	s0,1,0,1s0,0,0.4,0c0.6,0,1-0.5,1.1-0.7c0.1-0.2,0.7-0.6,0.8-1.3c0.1-0.7,1.2-4.7,2.2-5.4c0.9-0.8,1.1-1.3,1.9-1.5
	c0.8-0.2,1.6-0.6,1.8-0.4c0.2,0.2,0.6-1.4,0.7-1.9s0.1-1.4,0-1.9c-0.1-0.5-0.5-1.8-0.6-2C106.6,23,104.4,22.9,104.4,22.9z"></path>
<path class="svgst0" d="M125.4,51.1c0,0,0.6-2.9-0.4-3.8c-1-0.9-5-0.5-7.2-0.3s-5.8,0.3-7,0.3c-1.2,0.1-2.8-0.5-4.3-0.5
	c-1.5,0-5.2,0.3-5.5,0.4s-1.3,0.8-1.6,0.9s-1.9,0.8-2.1,0.4C97,48.2,97,47.1,98,46.8c1.1-0.3,1.5-1,2.2-1.2c0.7-0.2,3.4-0.9,5.4-0.9
	s2.9-0.2,5.7-0.4c2.8-0.3,5.7-0.3,6.2-0.3s2.9-0.1,3.7,0c0.8,0.1,1.4,0,1.4-0.5s-0.3-1.3-0.3-1.3s-0.2-1.5,0.6-1.1s1.6,0.9,1.8,1.6
	s3.4,1.8,4.3,1.8c0.9,0,2.5,1.4,2.8,2.2S125.4,51.1,125.4,51.1z"></path>
<g>
	<path class="svgst0" d="M152.7,5.9h-0.9V1h-1.5V0.2h3.9V1h-1.5V5.9z"></path>
	<path class="svgst0" d="M159.4,2.3c0,0.3-0.1,0.5-0.3,0.8l-1.5,3L156.2,3c-0.1-0.2-0.2-0.5-0.3-0.7c0,0.3,0,0.5-0.1,0.8l-0.6,2.8h-0.8
		l1.3-5.9l1.7,3.5c0,0.1,0.1,0.4,0.3,0.8c0.1-0.3,0.2-0.6,0.3-0.8l1.6-3.5l1.4,5.9h-0.9l-0.6-2.8C159.4,3,159.4,2.7,159.4,2.3z"></path>
</g>
<g>
	<path class="svgst0" d="M625.4,74.3c0.7,0.7,1.1,1.6,1.1,2.6c0,1-0.4,2-1.1,2.7c-0.7,0.7-1.7,1.1-2.7,1.1c-1,0-2-0.4-2.7-1.1
		c-0.7-0.7-1.1-1.7-1.1-2.6c0-1,0.4-2,1.1-2.7c0.7-0.7,1.6-1.1,2.6-1.1C623.8,73.2,624.7,73.6,625.4,74.3z M620.5,74.6
		c-0.6,0.6-1,1.5-1,2.3c0,0.8,0.3,1.6,0.9,2.3c0.6,0.6,1.4,1,2.2,1c0.9,0,1.7-0.3,2.3-0.9c0.6-0.6,0.9-1.4,0.9-2.2
		c0-0.9-0.3-1.7-0.9-2.3c-0.6-0.6-1.4-1-2.3-1C621.8,73.7,621.1,74,620.5,74.6z M622.8,74.8c1.2,0,1.8,0.4,1.8,1.2
		c0,0.6-0.3,1-0.9,1.2l0.9,1.9h-1l-0.8-1.8h-0.7V79h-0.9v-4.2H622.8z M622.1,76.7h0.6c0.7,0,1-0.2,1-0.6c0-0.5-0.3-0.7-1-0.7h-0.6
		V76.7z"></path>
</g>
</svg>